<svg width="42" height="28" viewBox="0 0 42 28" fill="none" xmlns="http://www.w3.org/2000/svg">
<path fill-rule="evenodd" clip-rule="evenodd" d="M39.5785 4.93463C35.598 4.93463 31.1066 6.66014 27.7812 9.10527C25.0871 11.0862 23.3787 13.0583 22.2134 15.2673C21.0349 17.5012 20.3485 20.0955 19.8649 23.427C19.7901 23.9427 19.7149 24.3799 19.6354 24.738C19.5645 25.0574 19.4603 25.4592 19.2803 25.8148C19.194 25.9852 19.0073 26.3161 18.655 26.5983C18.2276 26.9407 17.5806 27.1794 16.8551 27.0089C16.2602 26.8691 15.8958 26.5143 15.7451 26.3501C15.5729 26.1623 15.4561 25.9743 15.3873 25.8546C15.2042 25.5358 15.0129 25.0507 14.8866 24.7305C14.8591 24.6608 14.8347 24.599 14.8142 24.5484C14.6404 24.1204 14.5055 23.8399 14.3936 23.6782C12.7124 21.2498 11.0267 19.5081 9.10599 18.3608C7.20902 17.2277 4.95294 16.5969 2 16.5969H0V12.5969H2C5.56716 12.5969 8.5535 13.3715 11.1572 14.9268C13.189 16.1404 14.9066 17.7811 16.459 19.7442C16.9559 17.4527 17.6445 15.3553 18.6755 13.4009C20.1686 10.5706 22.3165 8.15852 25.4116 5.88266C29.28 3.03824 34.5828 0.934631 39.5785 0.934631H41.5785V4.93463H39.5785Z" fill="#AEFF00"/>
</svg>
