<svg width="25" height="20" viewBox="0 0 25 20" fill="none" xmlns="http://www.w3.org/2000/svg">
<path d="M16.4456 0.129014C16.5005 1.72034 17.0588 4.21559 18.2392 6.46648C18.4582 6.8841 18.7041 7.3031 18.9785 7.71249C14.2954 6.89654 7.16463 7.27075 0 12.0869L1.84633 15.2161C8.49824 10.7446 15.0365 10.6654 18.9025 11.4511C18.8795 11.4771 18.8567 11.5032 18.8339 11.5295C17.1268 13.5033 16.0174 16.3401 16.5286 20L19.7634 19.486C19.4067 16.9326 20.1599 15.1378 21.2386 13.8907C22.3685 12.5842 23.895 11.8442 25 11.6209L24.9981 8.19671C23.3203 7.86069 22.0263 6.54343 21.0942 4.76605C20.1591 2.98288 19.7492 1.02442 19.7138 0L16.4456 0.129014Z" fill="black"/>
</svg>
