<svg width="128" height="128" viewBox="0 0 128 128" fill="none" xmlns="http://www.w3.org/2000/svg">
<path d="M128 64C128 99.3462 99.3462 128 64 128C28.6538 128 0 99.3462 0 64C0 28.6538 28.6538 0 64 0C99.3462 0 128 28.6538 128 64Z" fill="black"/>
<path d="M64 21.3333L67.2962 53.8554L89.0788 29.4819L72.6295 57.7303L104.578 50.8153L74.6667 64L104.578 77.1847L72.6295 70.2697L89.0788 98.5181L67.2962 74.1446L64 106.667L60.7038 74.1446L38.9212 98.5181L55.3705 70.2697L23.4216 77.1847L53.3333 64L23.4216 50.8153L55.3705 57.7303L38.9212 29.4819L60.7038 53.8554L64 21.3333Z" fill="#AEFF00"/>
</svg>
