<svg width="276" height="223" viewBox="0 0 276 223" fill="none" xmlns="http://www.w3.org/2000/svg">
<path d="M97.5289 168.904C97.5289 170.737 96.9504 172.278 95.7934 173.526C94.6495 174.774 93.0245 175.71 90.9184 176.334C88.8254 176.945 86.3619 177.25 83.5279 177.25C80.6679 177.25 78.1329 176.906 75.9229 176.217C73.7129 175.528 71.9774 174.559 70.7164 173.311C69.4554 172.05 68.7859 170.594 68.7079 168.943H78.7699C79.0429 169.697 79.6084 170.256 80.4664 170.62C81.3244 170.984 82.5269 171.166 84.0739 171.166C85.3089 171.166 86.2514 171.049 86.9014 170.815C87.5644 170.568 87.8959 170.217 87.8959 169.762C87.8959 169.346 87.6294 169.041 87.0964 168.846C86.5634 168.651 85.6729 168.514 84.4249 168.436L80.7589 168.202C77.951 168.02 75.7085 167.65 74.0314 167.091C72.3544 166.532 71.1454 165.784 70.4044 164.848C69.6634 163.899 69.2929 162.729 69.2929 161.338C69.2929 159.583 69.8454 158.114 70.9504 156.931C72.0684 155.748 73.6349 154.871 75.6499 154.299C77.6779 153.714 80.0699 153.421 82.8259 153.421C85.4389 153.421 87.7789 153.752 89.8459 154.415C91.9259 155.078 93.5899 156.015 94.8379 157.224C96.0859 158.42 96.8139 159.804 97.0219 161.377H86.9599C86.7389 160.675 86.2449 160.123 85.4779 159.72C84.7109 159.317 83.684 159.115 82.3969 159.115C81.24 159.115 80.3754 159.245 79.8034 159.505C79.2444 159.765 78.9649 160.129 78.9649 160.597C78.9649 160.883 79.0364 161.104 79.1794 161.26C79.3224 161.416 79.5695 161.54 79.9204 161.631C80.2714 161.709 80.7849 161.767 81.4609 161.806L86.3749 162.118C89.1439 162.287 91.341 162.645 92.966 163.191C94.604 163.724 95.7739 164.458 96.4759 165.394C97.1779 166.317 97.5289 167.487 97.5289 168.904Z" fill="white"/>
<path d="M98.3623 161.338V157.087L102.769 154.864L107.098 148H112.675V154.123H121.45V161.338H112.675V165.94C112.675 166.941 112.786 167.721 113.007 168.28C113.241 168.826 113.657 169.223 114.255 169.47C114.853 169.717 115.717 169.84 116.848 169.84C118.655 169.84 120.319 169.593 121.84 169.099V176.275C120.891 176.561 119.773 176.795 118.486 176.977C117.199 177.159 115.886 177.25 114.547 177.25C110.621 177.25 107.677 176.386 105.714 174.657C103.751 172.915 102.769 170.438 102.769 167.227V161.338H98.3623Z" fill="white"/>
<path d="M138.032 177.25C135.094 177.25 132.507 176.756 130.271 175.768C128.035 174.78 126.299 173.389 125.064 171.595C123.829 169.788 123.212 167.708 123.212 165.355C123.212 162.989 123.829 160.903 125.064 159.096C126.299 157.289 128.035 155.891 130.271 154.903C132.507 153.915 135.094 153.421 138.032 153.421C140.97 153.421 143.557 153.915 145.793 154.903C148.029 155.891 149.764 157.289 150.999 159.096C152.234 160.903 152.852 162.989 152.852 165.355C152.852 167.708 152.234 169.788 150.999 171.595C149.764 173.389 148.029 174.78 145.793 175.768C143.557 176.756 140.97 177.25 138.032 177.25ZM138.032 170.035C139.566 170.035 140.755 169.626 141.6 168.807C142.445 167.988 142.868 166.837 142.868 165.355C142.868 163.847 142.445 162.684 141.6 161.865C140.755 161.046 139.566 160.636 138.032 160.636C136.498 160.636 135.308 161.046 134.463 161.865C133.618 162.684 133.196 163.847 133.196 165.355C133.196 166.837 133.618 167.988 134.463 168.807C135.308 169.626 136.498 170.035 138.032 170.035Z" fill="white"/>
<path d="M173.198 153.421C173.939 153.421 174.797 153.499 175.772 153.655V162.04C174.16 161.754 172.743 161.611 171.521 161.611C169.818 161.611 168.447 162.079 167.407 163.015C166.38 163.951 165.866 165.589 165.866 167.929V176.548H155.96V161.923L154.4 154.123H164.54L165.496 159.856C166.211 157.828 167.179 156.249 168.401 155.118C169.623 153.987 171.222 153.421 173.198 153.421Z" fill="white"/>
<path d="M197.923 154.123H208.453L198.235 176.236C197.013 178.875 195.401 180.773 193.399 181.93C191.41 183.1 189.252 183.685 186.925 183.685C185.053 183.685 183.408 183.458 181.991 183.003C180.574 182.561 179.164 181.813 177.76 180.76V174.13C179.151 175.014 180.431 175.645 181.601 176.022C182.784 176.399 184.065 176.587 185.443 176.587C186.574 176.587 187.523 176.366 188.29 175.924C189.07 175.469 189.707 174.676 190.201 173.545H185.677L176.668 154.123H187.588L192.697 167.286L197.923 154.123Z" fill="white"/>
<path d="M19.227 192.421C21.385 192.421 23.2375 192.856 24.7845 193.728C26.3315 194.586 27.5145 195.808 28.3335 197.394C29.1525 198.966 29.562 200.806 29.562 202.912V215.548H19.656V204.316C19.656 203.068 19.3115 202.106 18.6225 201.43C17.9335 200.754 16.965 200.416 15.717 200.416C14.378 200.416 13.3315 200.806 12.5775 201.586C11.8365 202.366 11.466 203.458 11.466 204.862V215.548H1.56V201.157L0 193.123H9.906L10.608 197.374C11.596 195.749 12.8375 194.521 14.3325 193.688C15.8275 192.843 17.459 192.421 19.227 192.421Z" fill="white"/>
<path d="M63.1142 193.123L61.5542 204.316L63.1142 215.548H52.8182L52.2722 211.668C51.2192 213.137 49.9257 214.268 48.3917 215.061C46.8577 215.854 45.1482 216.25 43.2632 216.25C41.0922 216.25 39.1747 215.756 37.5107 214.768C35.8467 213.78 34.5532 212.389 33.6302 210.595C32.7202 208.788 32.2652 206.708 32.2652 204.355C32.2652 201.989 32.7202 199.903 33.6302 198.096C34.5532 196.289 35.8467 194.891 37.5107 193.903C39.1747 192.915 41.0922 192.421 43.2632 192.421C45.1482 192.421 46.8577 192.811 48.3917 193.591C49.9387 194.371 51.2322 195.489 52.2722 196.945L52.8182 193.123H63.1142ZM46.4612 208.801C47.3062 208.801 48.1317 208.606 48.9377 208.216C49.7567 207.826 50.4652 207.293 51.0632 206.617C51.6742 205.941 52.1032 205.187 52.3502 204.355C52.1032 203.51 51.6742 202.75 51.0632 202.074C50.4652 201.385 49.7567 200.845 48.9377 200.455C48.1317 200.065 47.3062 199.87 46.4612 199.87C45.6422 199.87 44.9142 200.065 44.2772 200.455C43.6402 200.845 43.1397 201.385 42.7757 202.074C42.4247 202.75 42.2492 203.51 42.2492 204.355C42.2492 205.2 42.4247 205.961 42.7757 206.637C43.1397 207.312 43.6402 207.846 44.2772 208.236C44.9142 208.612 45.6422 208.801 46.4612 208.801Z" fill="white"/>
<path d="M80.2181 206.5L85.4051 193.123H95.9351L85.7561 215.548H74.4461L64.2671 193.123H75.1871L80.2181 206.5Z" fill="white"/>
<path d="M97.677 215.548V192.655L102.63 193.669L107.583 192.655V215.548H97.677ZM102.63 191.485C101.512 191.485 100.537 191.303 99.705 190.939C98.873 190.575 98.2295 190.055 97.7745 189.379C97.3195 188.69 97.092 187.884 97.092 186.961C97.092 186.038 97.3195 185.239 97.7745 184.562C98.2295 183.874 98.873 183.347 99.705 182.983C100.537 182.619 101.512 182.437 102.63 182.437C103.748 182.437 104.723 182.619 105.555 182.983C106.387 183.347 107.031 183.874 107.486 184.562C107.941 185.239 108.168 186.038 108.168 186.961C108.168 187.884 107.941 188.69 107.486 189.379C107.031 190.055 106.387 190.575 105.555 190.939C104.723 191.303 103.748 191.485 102.63 191.485Z" fill="white"/>
<path d="M130.344 193.123H140.25V209.581C140.25 212.233 139.587 214.547 138.261 216.523C136.948 218.499 135.069 220.02 132.625 221.086C130.181 222.152 127.315 222.685 124.026 222.685C121.933 222.685 119.983 222.425 118.176 221.905C116.369 221.385 114.523 220.579 112.638 219.487V212.272C114.224 213.416 115.927 214.274 117.747 214.846C119.58 215.418 121.465 215.704 123.402 215.704C125.729 215.704 127.464 215.262 128.608 214.378C129.765 213.481 130.344 211.96 130.344 209.815V209.484C129.239 210.498 127.939 211.304 126.444 211.902C124.949 212.487 123.298 212.779 121.491 212.779C119.372 212.779 117.474 212.356 115.797 211.512C114.12 210.667 112.807 209.471 111.858 207.924C110.922 206.376 110.454 204.602 110.454 202.6C110.454 200.598 110.922 198.824 111.858 197.277C112.807 195.729 114.12 194.534 115.797 193.688C117.474 192.843 119.372 192.421 121.491 192.421C123.285 192.421 124.929 192.746 126.424 193.396C127.919 194.033 129.226 194.891 130.344 195.97V193.123ZM124.962 206.227C126.249 206.227 127.373 205.915 128.335 205.291C129.31 204.667 130.084 203.77 130.656 202.6C130.045 201.404 129.258 200.5 128.296 199.889C127.334 199.278 126.223 198.973 124.962 198.973C123.571 198.973 122.459 199.292 121.627 199.929C120.808 200.566 120.399 201.456 120.399 202.6C120.399 203.744 120.802 204.635 121.608 205.272C122.414 205.909 123.532 206.227 124.962 206.227Z" fill="white"/>
<path d="M173.982 193.123L172.422 204.316L173.982 215.548H163.686L163.14 211.668C162.087 213.137 160.794 214.268 159.26 215.061C157.726 215.854 156.016 216.25 154.131 216.25C151.96 216.25 150.043 215.756 148.379 214.768C146.715 213.78 145.421 212.389 144.498 210.595C143.588 208.788 143.133 206.708 143.133 204.355C143.133 201.989 143.588 199.903 144.498 198.096C145.421 196.289 146.715 194.891 148.379 193.903C150.043 192.915 151.96 192.421 154.131 192.421C156.016 192.421 157.726 192.811 159.26 193.591C160.807 194.371 162.1 195.489 163.14 196.945L163.686 193.123H173.982ZM157.329 208.801C158.174 208.801 159 208.606 159.806 208.216C160.625 207.826 161.333 207.293 161.931 206.617C162.542 205.941 162.971 205.187 163.218 204.355C162.971 203.51 162.542 202.75 161.931 202.074C161.333 201.385 160.625 200.845 159.806 200.455C159 200.065 158.174 199.87 157.329 199.87C156.51 199.87 155.782 200.065 155.145 200.455C154.508 200.845 154.008 201.385 153.644 202.074C153.293 202.75 153.117 203.51 153.117 204.355C153.117 205.2 153.293 205.961 153.644 206.637C154.008 207.312 154.508 207.846 155.145 208.236C155.782 208.612 156.51 208.801 157.329 208.801Z" fill="white"/>
<path d="M175.486 200.338V196.087L179.893 193.864L184.222 187H189.799V193.123H198.574V200.338H189.799V204.94C189.799 205.941 189.91 206.721 190.131 207.28C190.365 207.826 190.781 208.222 191.379 208.47C191.977 208.717 192.841 208.84 193.972 208.84C195.779 208.84 197.443 208.593 198.964 208.099V215.275C198.015 215.561 196.897 215.795 195.61 215.977C194.323 216.159 193.01 216.25 191.671 216.25C187.745 216.25 184.801 215.385 182.838 213.657C180.875 211.915 179.893 209.438 179.893 206.227V200.338H175.486Z" fill="white"/>
<path d="M201.88 215.548V192.655L206.833 193.669L211.786 192.655V215.548H201.88ZM206.833 191.485C205.715 191.485 204.74 191.303 203.908 190.939C203.076 190.575 202.433 190.055 201.978 189.379C201.523 188.69 201.295 187.884 201.295 186.961C201.295 186.038 201.523 185.239 201.978 184.562C202.433 183.874 203.076 183.347 203.908 182.983C204.74 182.619 205.715 182.437 206.833 182.437C207.951 182.437 208.926 182.619 209.758 182.983C210.59 183.347 211.234 183.874 211.689 184.562C212.144 185.239 212.371 186.038 212.371 186.961C212.371 187.884 212.144 188.69 211.689 189.379C211.234 190.055 210.59 190.575 209.758 190.939C208.926 191.303 207.951 191.485 206.833 191.485Z" fill="white"/>
<path d="M229.438 216.25C226.5 216.25 223.913 215.756 221.677 214.768C219.441 213.78 217.705 212.389 216.47 210.595C215.235 208.788 214.618 206.708 214.618 204.355C214.618 201.989 215.235 199.903 216.47 198.096C217.705 196.289 219.441 194.891 221.677 193.903C223.913 192.915 226.5 192.421 229.438 192.421C232.376 192.421 234.963 192.915 237.199 193.903C239.435 194.891 241.17 196.289 242.405 198.096C243.64 199.903 244.258 201.989 244.258 204.355C244.258 206.708 243.64 208.788 242.405 210.595C241.17 212.389 239.435 213.78 237.199 214.768C234.963 215.756 232.376 216.25 229.438 216.25ZM229.438 209.035C230.972 209.035 232.161 208.626 233.006 207.807C233.851 206.988 234.274 205.837 234.274 204.355C234.274 202.847 233.851 201.684 233.006 200.865C232.161 200.046 230.972 199.636 229.438 199.636C227.904 199.636 226.714 200.046 225.869 200.865C225.024 201.684 224.602 202.847 224.602 204.355C224.602 205.837 225.024 206.988 225.869 207.807C226.714 208.626 227.904 209.035 229.438 209.035Z" fill="white"/>
<path d="M265.034 192.421C267.192 192.421 269.044 192.856 270.591 193.728C272.138 194.586 273.321 195.808 274.14 197.394C274.959 198.966 275.369 200.806 275.369 202.912V215.548H265.463V204.316C265.463 203.068 265.118 202.106 264.429 201.43C263.74 200.754 262.772 200.416 261.524 200.416C260.185 200.416 259.138 200.806 258.384 201.586C257.643 202.366 257.273 203.458 257.273 204.862V215.548H247.367V201.157L245.807 193.123H255.713L256.415 197.374C257.403 195.749 258.644 194.521 260.139 193.688C261.634 192.843 263.266 192.421 265.034 192.421Z" fill="white"/>
<circle cx="138" cy="64" r="64" fill="black"/>
<path d="M138 21.3335L141.296 53.8556L163.079 29.4821L146.629 57.7305L178.578 50.8154L148.667 64.0002L178.578 77.1849L146.629 70.2699L163.079 98.5182L141.296 74.1448L138 106.667L134.704 74.1448L112.921 98.5182L129.37 70.2699L97.4216 77.1849L127.333 64.0002L97.4216 50.8154L129.37 57.7305L112.921 29.4821L134.704 53.8556L138 21.3335Z" fill="#AEFF00"/>
</svg>
