<svg width="22" height="22" viewBox="0 0 22 22" fill="none" xmlns="http://www.w3.org/2000/svg">
<path d="M22 11C22 17.0751 17.0751 22 11 22C4.92487 22 0 17.0751 0 11C0 4.92487 4.92487 0 11 0C17.0751 0 22 4.92487 22 11Z" fill="black"/>
<path d="M11 3.66667L11.5665 9.2564L15.3104 5.06721L12.4832 9.92239L17.9744 8.73388L12.8333 11L17.9744 13.2661L12.4832 12.0776L15.3104 16.9328L11.5665 12.7436L11 18.3333L10.4335 12.7436L6.68958 16.9328L9.5168 12.0776L4.02559 13.2661L9.16667 11L4.02559 8.73388L9.5168 9.92239L6.68958 5.06721L10.4335 9.2564L11 3.66667Z" fill="#AEFF00"/>
</svg>
