<svg width="200" height="48" viewBox="0 0 200 48" fill="none" xmlns="http://www.w3.org/2000/svg">
<path d="M73.22 18.08C73.22 19.02 72.9233 19.81 72.33 20.45C71.7433 21.09 70.91 21.57 69.83 21.89C68.7567 22.2033 67.4933 22.36 66.04 22.36C64.5733 22.36 63.2733 22.1833 62.14 21.83C61.0067 21.4767 60.1167 20.98 59.47 20.34C58.8233 19.6933 58.48 18.9467 58.44 18.1H63.6C63.74 18.4867 64.03 18.7733 64.47 18.96C64.91 19.1467 65.5267 19.24 66.32 19.24C66.9533 19.24 67.4367 19.18 67.77 19.06C68.11 18.9333 68.28 18.7533 68.28 18.52C68.28 18.3067 68.1433 18.15 67.87 18.05C67.5967 17.95 67.14 17.88 66.5 17.84L64.62 17.72C63.18 17.6267 62.03 17.4367 61.17 17.15C60.31 16.8633 59.69 16.48 59.31 16C58.93 15.5133 58.74 14.9133 58.74 14.2C58.74 13.3 59.0233 12.5467 59.59 11.94C60.1633 11.3333 60.9667 10.8833 62 10.59C63.04 10.29 64.2667 10.14 65.68 10.14C67.02 10.14 68.22 10.31 69.28 10.65C70.3467 10.99 71.2 11.47 71.84 12.09C72.48 12.7033 72.8533 13.4133 72.96 14.22H67.8C67.6867 13.86 67.4333 13.5767 67.04 13.37C66.6467 13.1633 66.12 13.06 65.46 13.06C64.8667 13.06 64.4233 13.1267 64.13 13.26C63.8433 13.3933 63.7 13.58 63.7 13.82C63.7 13.9667 63.7367 14.08 63.81 14.16C63.8833 14.24 64.01 14.3033 64.19 14.35C64.37 14.39 64.6333 14.42 64.98 14.44L67.5 14.6C68.92 14.6867 70.0467 14.87 70.88 15.15C71.72 15.4233 72.32 15.8 72.68 16.28C73.04 16.7533 73.22 17.3533 73.22 18.08Z" fill="white"/>
<path d="M73.6473 14.2V12.02L75.9073 10.88L78.1273 7.36H80.9873V10.5H85.4873V14.2H80.9873V16.56C80.9873 17.0733 81.044 17.4733 81.1573 17.76C81.2773 18.04 81.4907 18.2433 81.7973 18.37C82.104 18.4967 82.5473 18.56 83.1273 18.56C84.054 18.56 84.9073 18.4333 85.6873 18.18V21.86C85.2007 22.0067 84.6273 22.1267 83.9673 22.22C83.3073 22.3133 82.634 22.36 81.9473 22.36C79.934 22.36 78.424 21.9167 77.4173 21.03C76.4107 20.1367 75.9073 18.8667 75.9073 17.22V14.2H73.6473Z" fill="white"/>
<path d="M93.9906 22.36C92.484 22.36 91.1573 22.1067 90.0106 21.6C88.864 21.0933 87.974 20.38 87.3406 19.46C86.7073 18.5333 86.3906 17.4667 86.3906 16.26C86.3906 15.0467 86.7073 13.9767 87.3406 13.05C87.974 12.1233 88.864 11.4067 90.0106 10.9C91.1573 10.3933 92.484 10.14 93.9906 10.14C95.4973 10.14 96.824 10.3933 97.9706 10.9C99.1173 11.4067 100.007 12.1233 100.641 13.05C101.274 13.9767 101.591 15.0467 101.591 16.26C101.591 17.4667 101.274 18.5333 100.641 19.46C100.007 20.38 99.1173 21.0933 97.9706 21.6C96.824 22.1067 95.4973 22.36 93.9906 22.36ZM93.9906 18.66C94.7773 18.66 95.3873 18.45 95.8206 18.03C96.254 17.61 96.4706 17.02 96.4706 16.26C96.4706 15.4867 96.254 14.89 95.8206 14.47C95.3873 14.05 94.7773 13.84 93.9906 13.84C93.204 13.84 92.594 14.05 92.1606 14.47C91.7273 14.89 91.5106 15.4867 91.5106 16.26C91.5106 17.02 91.7273 17.61 92.1606 18.03C92.594 18.45 93.204 18.66 93.9906 18.66Z" fill="white"/>
<path d="M112.025 10.14C112.405 10.14 112.845 10.18 113.345 10.26V14.56C112.518 14.4133 111.792 14.34 111.165 14.34C110.292 14.34 109.588 14.58 109.055 15.06C108.528 15.54 108.265 16.38 108.265 17.58V22H103.185V14.5L102.385 10.5H107.585L108.075 13.44C108.442 12.4 108.938 11.59 109.565 11.01C110.192 10.43 111.012 10.14 112.025 10.14Z" fill="white"/>
<path d="M124.704 10.5H130.104L124.864 21.84C124.237 23.1933 123.411 24.1667 122.384 24.76C121.364 25.36 120.257 25.66 119.064 25.66C118.104 25.66 117.261 25.5433 116.534 25.31C115.807 25.0833 115.084 24.7 114.364 24.16V20.76C115.077 21.2133 115.734 21.5367 116.334 21.73C116.941 21.9233 117.597 22.02 118.304 22.02C118.884 22.02 119.371 21.9067 119.764 21.68C120.164 21.4467 120.491 21.04 120.744 20.46H118.424L113.804 10.5H119.404L122.024 17.25L124.704 10.5Z" fill="white"/>
<path d="M68.28 30.14C69.3867 30.14 70.3367 30.3633 71.13 30.81C71.9233 31.25 72.53 31.8767 72.95 32.69C73.37 33.4967 73.58 34.44 73.58 35.52V42H68.5V36.24C68.5 35.6 68.3233 35.1067 67.97 34.76C67.6167 34.4133 67.12 34.24 66.48 34.24C65.7933 34.24 65.2567 34.44 64.87 34.84C64.49 35.24 64.3 35.8 64.3 36.52V42H59.22V34.62L58.42 30.5H63.5L63.86 32.68C64.3667 31.8467 65.0033 31.2167 65.77 30.79C66.5367 30.3567 67.3733 30.14 68.28 30.14Z" fill="white"/>
<path d="M90.7863 30.5L89.9862 36.24L90.7863 42H85.5062L85.2262 40.01C84.6862 40.7633 84.0229 41.3433 83.2362 41.75C82.4496 42.1567 81.5729 42.36 80.6062 42.36C79.4929 42.36 78.5096 42.1067 77.6562 41.6C76.8029 41.0933 76.1396 40.38 75.6662 39.46C75.1996 38.5333 74.9662 37.4667 74.9662 36.26C74.9662 35.0467 75.1996 33.9767 75.6662 33.05C76.1396 32.1233 76.8029 31.4067 77.6562 30.9C78.5096 30.3933 79.4929 30.14 80.6062 30.14C81.5729 30.14 82.4496 30.34 83.2362 30.74C84.0296 31.14 84.6929 31.7133 85.2262 32.46L85.5062 30.5H90.7863ZM82.2462 38.54C82.6796 38.54 83.1029 38.44 83.5162 38.24C83.9362 38.04 84.2996 37.7667 84.6062 37.42C84.9196 37.0733 85.1396 36.6867 85.2662 36.26C85.1396 35.8267 84.9196 35.4367 84.6062 35.09C84.2996 34.7367 83.9362 34.46 83.5162 34.26C83.1029 34.06 82.6796 33.96 82.2462 33.96C81.8262 33.96 81.4529 34.06 81.1262 34.26C80.7996 34.46 80.5429 34.7367 80.3562 35.09C80.1762 35.4367 80.0862 35.8267 80.0862 36.26C80.0862 36.6933 80.1762 37.0833 80.3562 37.43C80.5429 37.7767 80.7996 38.05 81.1262 38.25C81.4529 38.4433 81.8262 38.54 82.2462 38.54Z" fill="white"/>
<path d="M99.5575 37.36L102.217 30.5H107.618L102.397 42H96.5975L91.3775 30.5H96.9775L99.5575 37.36Z" fill="white"/>
<path d="M108.511 42V30.26L111.051 30.78L113.591 30.26V42H108.511ZM111.051 29.66C110.477 29.66 109.977 29.5667 109.551 29.38C109.124 29.1933 108.794 28.9267 108.561 28.58C108.327 28.2267 108.211 27.8133 108.211 27.34C108.211 26.8667 108.327 26.4567 108.561 26.11C108.794 25.7567 109.124 25.4867 109.551 25.3C109.977 25.1133 110.477 25.02 111.051 25.02C111.624 25.02 112.124 25.1133 112.551 25.3C112.977 25.4867 113.307 25.7567 113.541 26.11C113.774 26.4567 113.891 26.8667 113.891 27.34C113.891 27.8133 113.774 28.2267 113.541 28.58C113.307 28.9267 112.977 29.1933 112.551 29.38C112.124 29.5667 111.624 29.66 111.051 29.66Z" fill="white"/>
<path d="M125.263 30.5H130.343V38.94C130.343 40.3 130.003 41.4867 129.323 42.5C128.65 43.5133 127.686 44.2933 126.433 44.84C125.18 45.3867 123.71 45.66 122.023 45.66C120.95 45.66 119.95 45.5267 119.023 45.26C118.096 44.9933 117.15 44.58 116.183 44.02V40.32C116.996 40.9067 117.87 41.3467 118.803 41.64C119.743 41.9333 120.71 42.08 121.703 42.08C122.896 42.08 123.786 41.8533 124.373 41.4C124.966 40.94 125.263 40.16 125.263 39.06V38.89C124.696 39.41 124.03 39.8233 123.263 40.13C122.496 40.43 121.65 40.58 120.723 40.58C119.636 40.58 118.663 40.3633 117.803 39.93C116.943 39.4967 116.27 38.8833 115.783 38.09C115.303 37.2967 115.063 36.3867 115.063 35.36C115.063 34.3333 115.303 33.4233 115.783 32.63C116.27 31.8367 116.943 31.2233 117.803 30.79C118.663 30.3567 119.636 30.14 120.723 30.14C121.643 30.14 122.486 30.3067 123.253 30.64C124.02 30.9667 124.69 31.4067 125.263 31.96V30.5ZM122.503 37.22C123.163 37.22 123.74 37.06 124.233 36.74C124.733 36.42 125.13 35.96 125.423 35.36C125.11 34.7467 124.706 34.2833 124.213 33.97C123.72 33.6567 123.15 33.5 122.503 33.5C121.79 33.5 121.22 33.6633 120.793 33.99C120.373 34.3167 120.163 34.7733 120.163 35.36C120.163 35.9467 120.37 36.4033 120.783 36.73C121.196 37.0567 121.77 37.22 122.503 37.22Z" fill="white"/>
<path d="M147.642 30.5L146.842 36.24L147.642 42H142.362L142.082 40.01C141.542 40.7633 140.878 41.3433 140.092 41.75C139.305 42.1567 138.428 42.36 137.462 42.36C136.348 42.36 135.365 42.1067 134.512 41.6C133.658 41.0933 132.995 40.38 132.522 39.46C132.055 38.5333 131.822 37.4667 131.822 36.26C131.822 35.0467 132.055 33.9767 132.522 33.05C132.995 32.1233 133.658 31.4067 134.512 30.9C135.365 30.3933 136.348 30.14 137.462 30.14C138.428 30.14 139.305 30.34 140.092 30.74C140.885 31.14 141.548 31.7133 142.082 32.46L142.362 30.5H147.642ZM139.102 38.54C139.535 38.54 139.958 38.44 140.372 38.24C140.792 38.04 141.155 37.7667 141.462 37.42C141.775 37.0733 141.995 36.6867 142.122 36.26C141.995 35.8267 141.775 35.4367 141.462 35.09C141.155 34.7367 140.792 34.46 140.372 34.26C139.958 34.06 139.535 33.96 139.102 33.96C138.682 33.96 138.308 34.06 137.982 34.26C137.655 34.46 137.398 34.7367 137.212 35.09C137.032 35.4367 136.942 35.8267 136.942 36.26C136.942 36.6933 137.032 37.0833 137.212 37.43C137.398 37.7767 137.655 38.05 137.982 38.25C138.308 38.4433 138.682 38.54 139.102 38.54Z" fill="white"/>
<path d="M148.413 34.2V32.02L150.673 30.88L152.893 27.36H155.753V30.5H160.253V34.2H155.753V36.56C155.753 37.0733 155.81 37.4733 155.923 37.76C156.043 38.04 156.256 38.2433 156.563 38.37C156.87 38.4967 157.313 38.56 157.893 38.56C158.82 38.56 159.673 38.4333 160.453 38.18V41.86C159.966 42.0067 159.393 42.1267 158.733 42.22C158.073 42.3133 157.4 42.36 156.713 42.36C154.7 42.36 153.19 41.9167 152.183 41.03C151.176 40.1367 150.673 38.8667 150.673 37.22V34.2H148.413Z" fill="white"/>
<path d="M161.948 42V30.26L164.488 30.78L167.028 30.26V42H161.948ZM164.488 29.66C163.915 29.66 163.415 29.5667 162.988 29.38C162.562 29.1933 162.232 28.9267 161.998 28.58C161.765 28.2267 161.648 27.8133 161.648 27.34C161.648 26.8667 161.765 26.4567 161.998 26.11C162.232 25.7567 162.562 25.4867 162.988 25.3C163.415 25.1133 163.915 25.02 164.488 25.02C165.062 25.02 165.562 25.1133 165.988 25.3C166.415 25.4867 166.745 25.7567 166.978 26.11C167.212 26.4567 167.328 26.8667 167.328 27.34C167.328 27.8133 167.212 28.2267 166.978 28.58C166.745 28.9267 166.415 29.1933 165.988 29.38C165.562 29.5667 165.062 29.66 164.488 29.66Z" fill="white"/>
<path d="M176.08 42.36C174.574 42.36 173.247 42.1067 172.1 41.6C170.954 41.0933 170.064 40.38 169.43 39.46C168.797 38.5333 168.48 37.4667 168.48 36.26C168.48 35.0467 168.797 33.9767 169.43 33.05C170.064 32.1233 170.954 31.4067 172.1 30.9C173.247 30.3933 174.574 30.14 176.08 30.14C177.587 30.14 178.914 30.3933 180.06 30.9C181.207 31.4067 182.097 32.1233 182.73 33.05C183.364 33.9767 183.68 35.0467 183.68 36.26C183.68 37.4667 183.364 38.5333 182.73 39.46C182.097 40.38 181.207 41.0933 180.06 41.6C178.914 42.1067 177.587 42.36 176.08 42.36ZM176.08 38.66C176.867 38.66 177.477 38.45 177.91 38.03C178.344 37.61 178.56 37.02 178.56 36.26C178.56 35.4867 178.344 34.89 177.91 34.47C177.477 34.05 176.867 33.84 176.08 33.84C175.294 33.84 174.684 34.05 174.25 34.47C173.817 34.89 173.6 35.4867 173.6 36.26C173.6 37.02 173.817 37.61 174.25 38.03C174.684 38.45 175.294 38.66 176.08 38.66Z" fill="white"/>
<path d="M194.335 30.14C195.441 30.14 196.391 30.3633 197.185 30.81C197.978 31.25 198.585 31.8767 199.005 32.69C199.425 33.4967 199.635 34.44 199.635 35.52V42H194.555V36.24C194.555 35.6 194.378 35.1067 194.025 34.76C193.671 34.4133 193.175 34.24 192.535 34.24C191.848 34.24 191.311 34.44 190.925 34.84C190.545 35.24 190.355 35.8 190.355 36.52V42H185.275V34.62L184.475 30.5H189.555L189.915 32.68C190.421 31.8467 191.058 31.2167 191.825 30.79C192.591 30.3567 193.428 30.14 194.335 30.14Z" fill="white"/>
<circle cx="24" cy="24" r="24" fill="black"/>
<path d="M24 8L25.2361 20.1958L33.4046 11.0557L27.2361 21.6489L39.2169 19.0557L28 24L39.2169 28.9443L27.2361 26.3511L33.4046 36.9443L25.2361 27.8042L24 40L22.7639 27.8042L14.5954 36.9443L20.7639 26.3511L8.7831 28.9443L20 24L8.7831 19.0557L20.7639 21.6489L14.5954 11.0557L22.7639 20.1958L24 8Z" fill="#AEFF00"/>
</svg>
