<svg width="33" height="26" viewBox="0 0 33 26" fill="none" xmlns="http://www.w3.org/2000/svg">
<path d="M21.7082 0.167718C21.7807 2.23645 22.5176 5.48027 24.0757 8.40642C24.3648 8.94933 24.6894 9.49404 25.0516 10.0262C18.8699 8.9655 9.45732 9.45197 0 15.713L2.43716 19.7809C11.2177 13.9679 19.8482 13.8651 24.9513 14.8864C24.921 14.9202 24.8908 14.9542 24.8608 14.9884C22.6074 17.5543 21.1429 21.2421 21.8178 26L26.0877 25.3319C25.6168 22.0124 26.6111 19.6791 28.0349 18.0579C29.5264 16.3595 31.5414 15.3975 33 15.1071L32.9975 10.6557C30.7827 10.2189 29.0747 8.50646 27.8444 6.19587C26.61 3.87775 26.0689 1.33175 26.0222 0L21.7082 0.167718Z" fill="#AEFF00"/>
</svg>
