<svg width="33" height="26" viewBox="0 0 33 26" fill="none" xmlns="http://www.w3.org/2000/svg">
<path d="M11.2918 0.167718C11.2193 2.23645 10.4824 5.48027 8.92427 8.40642C8.63519 8.94933 8.3106 9.49404 7.94843 10.0262C14.1301 8.9655 23.5427 9.45197 33 15.713L30.5628 19.7809C21.7823 13.9679 13.1518 13.8651 8.0487 14.8864C8.079 14.9202 8.10917 14.9542 8.13921 14.9884C10.3926 17.5543 11.8571 21.2421 11.1822 26L6.91233 25.3319C7.38317 22.0124 6.3889 19.6791 4.96511 18.0579C3.47356 16.3595 1.45855 15.3975 0 15.1071L0.00247192 10.6557C2.21727 10.2189 3.9253 8.50646 5.15564 6.19587C6.38999 3.87775 6.93111 1.33175 6.97778 0L11.2918 0.167718Z" fill="#AEFF00"/>
</svg>
