<svg width="32" height="30" viewBox="0 0 32 30" fill="none" xmlns="http://www.w3.org/2000/svg">
<path fill-rule="evenodd" clip-rule="evenodd" d="M21.5514 21.356C19.9888 22.7868 18.0294 23.8529 15.7863 24.3749C8.93411 25.9696 2.02935 21.8831 0.364088 15.2474C-1.30117 8.61165 2.90367 1.9396 9.75587 0.344916C16.6081 -1.24977 23.5128 2.83679 25.1781 9.4725C25.9621 12.5967 25.4449 15.729 23.9628 18.3356C26.3992 19.0899 28.3556 20.9615 32 28.5247L28.7294 30C24.9179 22.0902 23.8442 21.6912 21.5514 21.356ZM21.8696 10.2425C23.0907 15.1087 20.0072 20.0015 14.9823 21.1709C9.95731 22.3404 4.89381 19.3436 3.67262 14.4774C2.45143 9.61119 5.53498 4.71835 10.5599 3.54892C15.5849 2.37948 20.6484 5.37629 21.8696 10.2425Z" fill="black"/>
</svg>
